<?xml version="1.0" standalone="no"?>
<!DOCTYPE svg PUBLIC "-//W3C//DTD SVG 20010904//EN"
 "http://www.w3.org/TR/2001/REC-SVG-20010904/DTD/svg10.dtd">
<svg version="1.0" xmlns="http://www.w3.org/2000/svg"
 width="960.000000pt" height="960.000000pt" viewBox="0 0 960.000000 960.000000"
 preserveAspectRatio="xMidYMid meet">

<g transform="translate(0.000000,960.000000) scale(0.100000,-0.100000)"
fill="#000000" stroke="none">
<path d="M4270 8181 c-104 -22 -203 -99 -252 -199 -22 -45 -23 -59 -26 -318
l-3 -271 -97 -9 c-53 -4 -268 -9 -477 -10 -314 -1 -392 -4 -449 -18 -141 -34
-267 -127 -342 -252 -87 -146 -100 -216 -109 -593 -6 -221 -8 -247 -26 -269
-17 -22 -19 -41 -19 -178 0 -84 -3 -159 -6 -167 -3 -8 -13 -13 -23 -10 -10 3
-31 -6 -47 -20 l-29 -25 -5 -324 c-3 -177 -2 -462 1 -633 3 -170 7 -339 7
-375 0 -36 4 -129 8 -207 l7 -141 33 -18 c19 -10 35 -19 36 -19 1 0 4 -152 7
-337 5 -250 9 -340 19 -350 16 -16 17 -266 1 -302 -15 -32 3 -284 26 -371 25
-96 70 -181 122 -232 47 -47 156 -113 186 -113 8 0 18 -12 21 -27 20 -87 54
-170 81 -198 26 -28 39 -33 101 -39 105 -10 168 1 218 38 46 36 93 112 102
169 l7 37 196 0 c139 0 201 -4 209 -12 14 -14 1958 -18 2212 -4 l155 8 25 -40
c40 -64 117 -140 169 -168 56 -28 129 -40 196 -29 65 9 131 75 167 165 l26 65
70 26 c93 34 132 60 187 122 93 103 123 193 135 407 7 131 6 160 -7 188 -8 17
-19 32 -24 32 -5 0 -9 60 -9 134 0 112 3 136 17 147 48 41 46 -10 51 1437 l4
1354 -21 29 c-21 29 -22 36 -19 322 3 253 1 301 -15 361 -42 164 -133 284
-267 349 -126 62 -171 68 -600 78 -212 5 -429 11 -484 15 l-98 5 3 282 4 282
-27 56 c-28 55 -82 114 -128 139 -69 37 -113 40 -645 39 -286 -1 -536 -4 -555
-8z m1165 -62 c61 -31 121 -106 134 -169 6 -27 7 -148 4 -302 l-6 -256 -77 -1
-77 -1 -6 98 c-4 53 -7 166 -7 250 l0 154 -28 28 c-16 15 -46 33 -68 39 -54
15 -909 15 -969 0 -53 -13 -94 -54 -106 -105 -4 -22 -9 -135 -9 -251 l0 -213
-95 0 -95 0 4 263 c3 204 7 271 19 299 19 44 80 113 128 144 84 52 92 53 669
51 l535 -2 50 -26z m-135 -231 l45 -23 8 -130 c4 -71 6 -177 5 -235 l-3 -105
-544 -3 -543 -2 4 218 c3 189 6 223 22 246 35 54 44 55 521 56 438 0 441 0
485 -22z m97 -524 c-3 -3 -12 -4 -19 -1 -8 3 -5 6 6 6 11 1 17 -2 13 -5z m92
-5 c-10 -7 -8 -9 11 -8 14 0 85 -3 158 -7 l133 -7 17 -31 c15 -28 17 -87 20
-591 1 -308 1 -636 0 -729 l-3 -170 -38 63 c-51 82 -193 230 -290 303 -101 75
-237 141 -357 174 -116 32 -363 44 -485 25 -389 -63 -737 -350 -870 -716 -10
-27 -21 -53 -24 -57 -3 -4 -5 149 -3 340 2 190 1 344 -2 342 -2 -3 -5 -167 -7
-365 -1 -198 -6 -369 -11 -380 -13 -30 -1 1612 13 1674 6 31 22 62 39 81 l28
30 394 2 c322 2 356 3 188 8 -188 5 -198 6 -120 13 47 5 320 7 608 5 287 -2
522 -1 522 2 0 3 21 6 47 7 32 1 42 -1 32 -8z m119 4 c-10 -2 -26 -2 -35 0
-10 3 -2 5 17 5 19 0 27 -2 18 -5z m127 -3 c23 -6 13 -8 -40 -9 -49 0 -65 2
-55 9 17 11 51 11 95 0z m-1587 -7 c-26 -2 -71 -2 -100 0 -29 2 -8 3 47 3 55
0 79 -1 53 -3z m-905 -65 c-14 -28 -18 -71 -23 -268 -6 -251 -9 -269 -62 -316
-51 -47 -69 -50 -391 -59 l-198 -6 6 68 c12 145 17 174 41 240 54 148 147 255
277 317 88 42 142 53 270 55 l98 1 -18 -32z m489 27 c3 -3 0 -30 -7 -59 -18
-75 -24 -748 -30 -2950 -3 -995 -7 -1812 -10 -1814 -3 -3 -5 0 -5 7 0 10 -37
12 -165 9 -201 -4 -225 -21 -37 -26 70 -2 129 -6 131 -8 2 -2 -57 -4 -132 -4
-113 0 -137 3 -137 14 0 17 -18 31 -27 22 -3 -3 0 -12 7 -21 7 -8 8 -15 3 -15
-10 0 -44 34 -59 60 -5 8 -11 124 -14 257 l-5 241 -30 43 c-59 84 -60 84 -395
84 l-295 0 -3 119 c-2 107 -1 118 14 112 59 -23 117 -28 236 -24 75 4 134 10
141 17 6 6 23 11 38 11 15 0 31 5 35 11 5 9 -4 10 -32 6 -33 -6 -35 -5 -14 4
14 6 36 8 50 5 28 -5 66 24 116 89 l29 38 3 1271 c3 1294 2 1357 -34 1386 -17
15 -17 16 1 -44 13 -42 15 -219 15 -1290 -1 -683 -5 -1260 -9 -1284 -5 -24
-14 -49 -21 -55 -10 -10 -10 -8 -2 9 8 15 12 409 12 1317 2 1169 0 1299 -14
1329 -26 55 -81 104 -133 119 -63 18 -344 19 -392 1 l-34 -12 7 117 c8 143 12
159 39 168 12 3 132 12 267 20 135 7 256 17 270 21 46 13 112 75 135 128 21
47 23 69 26 273 6 310 -1 303 275 303 99 0 183 -2 186 -5z m2548 -37 c16 -35
20 -67 20 -163 2 -280 26 -404 84 -434 19 -11 19 -11 1 -6 -16 4 -15 0 8 -20
28 -25 54 -34 42 -15 -8 13 -4 13 41 -6 73 -31 149 -45 274 -49 242 -10 270
-14 281 -42 13 -35 12 -246 -2 -238 -5 4 -58 11 -117 16 -232 20 -351 -28
-424 -171 -21 -42 -23 -62 -29 -290 -3 -135 -6 -704 -5 -1265 1 -1095 -1
-1045 53 -1109 61 -73 139 -96 325 -96 115 0 138 -2 138 -15 0 -20 29 -8 32
14 1 9 4 -36 7 -99 4 -63 4 -118 1 -122 -3 -4 -72 -7 -155 -8 -82 -1 -199 -4
-259 -7 -102 -6 -111 -8 -149 -37 -70 -54 -75 -72 -81 -326 -5 -227 -17 -309
-45 -318 -8 -3 -11 0 -8 6 5 6 -64 8 -208 5 l-214 -6 -6 29 c-11 50 -15 51
-11 1 2 -26 2 -47 1 -47 -2 0 -12 -3 -22 -6 -15 -5 -15 -4 -3 5 13 9 15 142
15 1093 1 977 2 1086 17 1113 34 64 90 244 104 335 29 195 14 353 -53 560
l-38 115 -5 805 c-3 443 -9 813 -14 823 -8 16 5 17 188 17 l197 0 19 -42z
m343 17 c262 -56 382 -225 405 -567 l7 -98 -75 0 c-109 1 -317 18 -375 31 -58
14 -130 46 -163 74 -35 30 -55 73 -62 140 l-7 60 -1 -55 c-3 -123 78 -205 236
-239 42 -9 334 -31 455 -35 15 -1 27 -5 27 -9 0 -4 -28 -5 -62 -2 -35 3 -135
10 -223 15 -229 15 -323 40 -389 106 -54 55 -59 76 -68 274 -5 102 -12 212
-17 245 -5 33 -7 61 -6 63 1 1 10 -12 18 -30 9 -18 17 -27 17 -20 0 7 -7 27
-16 44 l-16 31 123 -6 c68 -4 155 -14 192 -22z m-3350 -22 c-13 -30 -18 -86
-22 -263 -6 -223 -6 -225 -34 -272 -32 -54 -79 -94 -122 -102 l-30 -6 31 12
c40 17 74 45 104 86 24 33 25 39 30 270 4 205 8 242 24 275 10 20 22 37 27 37
4 0 1 -17 -8 -37z m2597 -48 c0 -8 -4 -16 -9 -19 -5 -3 -8 5 -8 19 0 14 3 22
8 19 5 -3 9 -11 9 -19z m-1 -777 c0 -413 -4 -714 -9 -703 -15 36 -9 1425 7
1425 1 0 3 -325 2 -722z m-2914 172 c-153 -11 -365 -17 -359 -10 6 6 223 16
369 17 l100 0 -110 -7z m2027 -271 c283 -31 515 -157 704 -385 233 -280 327
-688 238 -1029 -14 -55 -27 -117 -28 -137 -2 -21 -6 -41 -11 -45 -4 -5 -4 3 0
16 5 16 4 21 -4 17 -6 -4 -11 -22 -11 -39 0 -35 -60 -152 -78 -152 -6 0 -14
-4 -19 -9 -5 -5 -3 -6 5 -2 39 23 -19 -66 -109 -169 -139 -156 -350 -286 -554
-342 -89 -24 -117 -27 -255 -27 -253 0 -457 58 -645 185 -70 47 -227 200 -221
215 3 8 0 13 -6 11 -6 -1 -20 15 -32 35 -11 21 -42 72 -68 115 -61 102 -101
204 -130 333 -20 92 -23 130 -22 300 1 181 3 201 28 283 95 315 294 564 565
705 220 115 398 148 653 121z m1993 -60 c29 -9 29 -9 2 -5 -39 5 -44 -11 -5
-19 50 -10 88 -26 89 -39 8 -78 -8 -2659 -17 -2713 -9 -60 -36 -68 -232 -68
-114 0 -175 4 -180 11 -4 6 -20 14 -37 18 l-30 7 30 -21 c17 -11 26 -20 20
-20 -25 1 -92 59 -110 95 -19 39 -20 64 -19 1290 0 935 3 1260 12 1291 29 100
115 170 224 182 76 8 212 4 253 -9z m-4012 -22 c66 -33 102 -72 118 -129 7
-30 9 -396 4 -1312 -7 -1230 -8 -1272 -26 -1303 -43 -70 -165 -113 -324 -113
-111 0 -167 12 -196 41 -10 10 -23 19 -29 19 -5 0 -12 10 -15 23 -7 28 -11
1229 -7 2078 3 698 0 662 64 695 48 25 113 33 239 30 103 -2 122 -5 172 -29z
m-519 -413 c14 -6 16 -71 16 -635 0 -433 -3 -629 -10 -629 -6 0 -25 7 -42 16
l-31 16 5 603 c5 660 4 651 62 629z m3503 -916 c-3 -8 -6 -5 -6 6 -1 11 2 17
5 13 3 -3 4 -12 1 -19z m-2168 -218 c3 -3 24 -40 46 -84 55 -109 113 -186 216
-288 205 -205 466 -319 779 -343 98 -7 235 10 350 46 41 12 86 23 100 23 14 1
24 6 23 14 -2 7 7 12 22 12 14 0 33 9 42 20 10 11 23 20 30 20 24 0 188 124
264 199 42 42 98 110 125 151 l49 75 2 -215 c7 -577 7 -1327 1 -1317 -4 7 -9
226 -10 487 -2 439 -3 420 -8 -265 -6 -807 -7 -815 -59 -815 -14 -1 -460 0
-991 0 l-965 1 -25 25 -25 24 -5 678 -5 677 -5 -505 c-3 -278 -5 -576 -5 -662
0 -97 -3 -151 -9 -141 -10 18 1 2158 11 2257 l6 59 20 -64 c10 -35 22 -66 26
-69z m2132 93 c-12 -20 -14 -14 -5 12 4 9 9 14 11 11 3 -2 0 -13 -6 -23z
m-3459 -470 c2 -106 -1 -193 -5 -193 -4 0 -19 11 -32 25 -25 24 -25 26 -25
204 l0 179 30 -11 29 -11 3 -193z m4635 -580 c-2 -16 -4 -5 -4 22 0 28 2 40 4
28 2 -13 2 -35 0 -50z m3 -148 c0 -8 -4 -15 -10 -15 -5 0 -7 7 -4 15 4 8 8 15
10 15 2 0 4 -7 4 -15z m-27 -132 c-10 -20 -25 -39 -33 -41 -9 -3 -6 5 9 21 14
16 26 44 30 74 5 42 6 44 9 15 2 -18 -5 -49 -15 -69z m-4029 -38 c-10 -8 -23
-14 -29 -14 -5 0 -1 6 9 14 11 8 24 15 30 15 5 0 1 -7 -10 -15z m3894 -22
c-21 -2 -55 -2 -75 0 -21 2 -4 4 37 4 41 0 58 -2 38 -4z m-4025 -30 c-7 -2
-19 -2 -25 0 -7 3 -2 5 12 5 14 0 19 -2 13 -5z m229 -266 c43 -18 86 -68 92
-110 7 -42 12 -497 6 -490 -3 2 -8 114 -11 247 -7 259 -12 286 -61 318 -13 9
-44 18 -68 21 l-45 7 46 -14 c63 -18 68 -22 90 -70 16 -36 19 -68 19 -259 0
-170 3 -225 15 -254 8 -19 15 -38 15 -42 0 -3 -75 -3 -167 0 -228 9 -296 30
-387 120 -53 53 -62 59 -47 32 14 -27 71 -76 126 -110 64 -39 143 -52 347 -55
87 -2 158 -7 158 -12 0 -5 -81 -6 -182 -3 -256 7 -337 34 -436 142 -79 86
-105 157 -122 340 -12 125 -12 156 -1 174 13 21 74 26 342 29 188 3 243 0 271
-11z m3828 6 l45 -8 -70 -6 -70 -5 73 -2 c42 -1 72 2 72 8 0 16 27 11 34 -6 9
-24 7 -181 -4 -259 -24 -164 -89 -278 -201 -350 -61 -40 -147 -55 -331 -62
l-170 -6 15 24 c26 40 37 144 37 356 l0 201 33 43 c54 70 67 74 293 77 109 2
219 0 244 -5z m-1123 -315 c-2 -13 -4 -3 -4 22 0 25 2 35 4 23 2 -13 2 -33 0
-45z m-2122 -338 c4 -6 -9 -10 -32 -9 -38 1 -38 1 -8 9 17 4 31 8 32 9 1 0 5
-3 8 -9z m2268 -17 c-13 -2 -33 -2 -45 0 -13 2 -3 4 22 4 25 0 35 -2 23 -4z
m260 0 c-29 -2 -78 -2 -110 0 -32 2 -8 3 52 3 61 0 87 -1 58 -3z"/>
<path d="M4658 7333 c12 -2 32 -2 45 0 12 2 2 4 -23 4 -25 0 -35 -2 -22 -4z"/>
<path d="M4898 7333 c56 -2 148 -2 205 0 56 1 10 3 -103 3 -113 0 -159 -2
-102 -3z"/>
<path d="M5348 7333 c39 -2 105 -2 145 0 39 1 7 3 -73 3 -80 0 -112 -2 -72 -3z"/>
<path d="M3066 6921 c-10 -11 -16 -26 -13 -33 4 -9 6 -7 6 4 2 40 72 50 96 14
32 -48 -22 -104 -74 -76 -12 6 -21 17 -21 25 0 8 -5 15 -10 15 -6 0 -4 -12 4
-29 20 -38 61 -48 94 -24 37 28 44 55 21 92 -15 25 -25 31 -52 31 -21 0 -41
-8 -51 -19z"/>
<path d="M2561 6544 c0 -11 3 -14 6 -6 3 7 2 16 -1 19 -3 4 -6 -2 -5 -13z"/>
<path d="M5895 4669 c-4 -6 -5 -12 -2 -15 2 -3 7 2 10 11 7 17 1 20 -8 4z"/>
<path d="M6343 7185 c0 -27 2 -38 4 -22 2 15 2 37 0 50 -2 12 -4 0 -4 -28z"/>
<path d="M6428 6928 c-25 -30 -22 -70 5 -96 67 -63 159 29 97 96 -28 29 -79
29 -102 0z m97 -12 c30 -46 -24 -102 -69 -72 -33 21 -39 53 -15 77 27 27 65
24 84 -5z"/>
<path d="M6478 6853 c6 -2 18 -2 25 0 6 3 1 5 -13 5 -14 0 -19 -2 -12 -5z"/>
<path d="M4765 6024 c-279 -43 -493 -204 -629 -473 -50 -98 -71 -202 -70 -356
0 -77 4 -150 10 -162 6 -15 9 30 9 140 0 142 4 182 28 272 5 17 68 139 81 154
9 12 8 13 -3 7 -9 -6 -12 -4 -9 5 3 8 11 14 19 14 8 0 14 10 15 21 2 31 75
108 87 92 6 -9 7 -7 3 5 -4 14 8 32 46 68 29 27 58 49 65 49 6 0 13 4 15 8 7
19 136 87 207 109 106 34 258 41 371 19 171 -35 343 -146 455 -293 21 -29 41
-53 43 -53 10 0 -39 69 -87 121 -104 116 -230 194 -368 230 -75 19 -232 31
-288 23z m-605 -464 c-11 -22 -23 -40 -25 -40 -3 0 4 18 15 40 11 22 23 40 25
40 3 0 -4 -18 -15 -40z"/>
<path d="M4783 5990 c-152 -17 -312 -94 -430 -207 -16 -15 -17 -27 -1 -17 7 5
8 3 4 -5 -5 -7 -15 -10 -23 -7 -8 3 -12 2 -8 -3 3 -5 -1 -16 -9 -24 -39 -39
-115 -150 -144 -210 -50 -104 -72 -203 -72 -328 0 -362 197 -629 544 -736 70
-22 99 -25 206 -24 174 2 209 5 202 15 -3 5 3 6 13 3 9 -4 23 -4 29 1 6 5 31
16 56 25 112 42 269 180 347 305 26 41 59 113 76 160 25 74 30 107 34 217 6
172 -9 243 -86 401 -51 103 -71 133 -138 201 -178 183 -372 259 -600 233z
m231 -40 c92 -23 177 -65 247 -120 28 -22 48 -40 44 -40 -4 0 -24 13 -44 29
-49 39 -144 86 -216 108 -45 13 -92 18 -190 18 -120 -1 -137 -3 -225 -34 -52
-17 -119 -46 -150 -62 -36 -20 -46 -24 -30 -10 48 40 176 100 245 114 101 22
227 21 319 -3z m25 -44 c137 -37 291 -147 382 -271 28 -38 53 -72 57 -75 5 -5
-27 51 -56 98 -8 12 -12 22 -8 22 9 0 56 -77 97 -160 57 -116 73 -194 73 -345
-1 -114 -4 -140 -28 -210 -41 -122 -101 -218 -191 -310 -134 -137 -277 -203
-460 -212 -234 -12 -439 68 -592 231 -124 132 -181 271 -190 466 -6 131 7 203
58 325 82 198 235 345 433 417 44 16 105 33 135 38 73 12 221 4 290 -14z m317
-158 l29 -33 -35 30 c-19 17 -37 31 -39 33 -2 1 0 2 5 2 6 0 23 -15 40 -32z"/>
<path d="M5530 5604 c0 -5 7 -18 15 -28 8 -11 15 -16 15 -10 0 5 -7 18 -15 28
-8 11 -15 16 -15 10z"/>
<path d="M4091 4984 c0 -11 3 -14 6 -6 3 7 2 16 -1 19 -3 4 -6 -2 -5 -13z"/>
<path d="M4096 4947 c3 -10 9 -15 12 -12 3 3 0 11 -7 18 -10 9 -11 8 -5 -6z"/>
<path d="M4200 4733 c18 -38 122 -143 179 -183 82 -55 169 -97 253 -120 82
-24 240 -35 307 -23 32 6 10 8 -85 8 -176 1 -301 37 -450 132 -54 34 -156 127
-193 178 -13 17 -17 20 -11 8z"/>
<path d="M5833 4692 c-13 -25 -21 -47 -20 -49 6 -5 49 77 45 86 -2 5 -13 -12
-25 -37z"/>
<path d="M5008 4423 c7 -3 16 -2 19 1 4 3 -2 6 -13 5 -11 0 -14 -3 -6 -6z"/>
<path d="M4125 4325 c17 -15 48 -39 70 -53 22 -15 46 -33 53 -39 7 -7 18 -13
25 -13 6 0 -9 14 -34 32 -24 17 -60 43 -79 58 -49 37 -71 47 -35 15z"/>
<path d="M5384 4214 c-18 -14 -18 -15 4 -4 12 6 22 13 22 15 0 8 -5 6 -26 -11z"/>
<path d="M4300 4211 c0 -8 50 -34 56 -29 1 2 -11 11 -27 20 -16 9 -29 14 -29
9z"/>
<path d="M4380 4170 c8 -5 20 -10 25 -10 6 0 3 5 -5 10 -8 5 -19 10 -25 10 -5
0 -3 -5 5 -10z"/>
<path d="M4450 4140 c0 -11 48 -25 57 -16 4 3 -3 6 -15 6 -12 0 -22 5 -22 10
0 6 -4 10 -10 10 -5 0 -10 -4 -10 -10z"/>
<path d="M4568 4103 c7 -3 16 -2 19 1 4 3 -2 6 -13 5 -11 0 -14 -3 -6 -6z"/>
<path d="M4610 4090 c8 -5 26 -10 39 -10 32 0 24 6 -19 14 -25 4 -31 3 -20 -4z"/>
<path d="M6827 6283 c18 -2 50 -2 70 0 21 2 7 4 -32 4 -38 0 -55 -2 -38 -4z"/>
<path d="M6560 6185 c-17 -24 -35 -67 -40 -96 -6 -28 -9 -169 -8 -313 l2 -261
6 295 c5 316 5 311 62 393 11 15 17 27 14 27 -3 0 -19 -20 -36 -45z"/>
<path d="M6603 6015 c-52 -37 -26 -135 36 -135 60 0 85 78 41 125 -27 29 -47
31 -77 10z m74 -31 c8 -22 -5 -61 -23 -68 -14 -5 -15 -4 -4 9 17 20 6 19 -15
-1 -21 -21 -45 -2 -45 37 0 53 68 71 87 23z"/>
<path d="M6603 3680 c-31 -13 -39 -53 -16 -84 27 -36 61 -39 89 -8 31 32 30
37 -5 73 -32 31 -35 32 -68 19z m57 -25 c20 -24 8 -50 -24 -50 -36 0 -56 26
-37 49 17 20 45 21 61 1z"/>
<path d="M6523 3610 c0 -25 2 -35 4 -22 2 12 2 32 0 45 -2 12 -4 2 -4 -23z"/>
<path d="M6531 3539 c-1 -26 30 -65 42 -52 4 3 -2 12 -12 20 -11 7 -22 23 -24
36 -4 20 -4 19 -6 -4z"/>
<path d="M2925 6006 c-23 -34 -15 -75 17 -99 26 -19 28 -19 53 -3 40 26 52 62
33 94 -9 15 -22 28 -30 30 -10 4 -11 2 0 -9 15 -17 16 -71 0 -87 -21 -21 -57
-14 -70 14 -10 21 -9 31 4 55 21 35 15 39 -7 5z"/>
<path d="M2975 5940 c-3 -5 -2 -10 4 -10 5 0 13 5 16 10 3 6 2 10 -4 10 -5 0
-13 -4 -16 -10z"/>
<path d="M3052 5465 c0 -16 2 -22 5 -12 2 9 2 23 0 30 -3 6 -5 -1 -5 -18z"/>
<path d="M3052 5390 c0 -19 2 -27 5 -17 2 9 2 25 0 35 -3 9 -5 1 -5 -18z"/>
<path d="M3053 5240 c0 -25 2 -35 4 -22 2 12 2 32 0 45 -2 12 -4 2 -4 -23z"/>
<path d="M3051 5104 c0 -11 3 -14 6 -6 3 7 2 16 -1 19 -3 4 -6 -2 -5 -13z"/>
<path d="M3054 4755 c0 -159 2 -223 3 -142 2 82 2 212 0 290 -1 78 -3 12 -3
-148z"/>
<path d="M3051 4254 c0 -11 3 -14 6 -6 3 7 2 16 -1 19 -3 4 -6 -2 -5 -13z"/>
<path d="M2512 4190 c0 -19 2 -27 5 -17 2 9 2 25 0 35 -3 9 -5 1 -5 -18z"/>
<path d="M3054 3920 c0 -157 2 -221 3 -142 2 78 2 206 0 285 -1 78 -3 14 -3
-143z"/>
<path d="M2926 3669 c-47 -37 -23 -99 40 -99 22 0 34 7 47 29 22 37 21 47 -3
71 -26 26 -51 25 -84 -1z m73 -7 c15 -27 -9 -66 -41 -70 -22 -3 -29 2 -34 23
-12 48 52 89 75 47z"/>
<path d="M3743 4460 c0 -36 2 -50 4 -32 2 17 2 47 0 65 -2 17 -4 3 -4 -33z"/>
<path d="M5813 4390 c0 -30 2 -43 4 -27 2 15 2 39 0 55 -2 15 -4 2 -4 -28z"/>
<path d="M3743 4280 c0 -25 2 -35 4 -22 2 12 2 32 0 45 -2 12 -4 2 -4 -23z"/>
<path d="M4210 4176 c0 -2 7 -7 16 -10 8 -3 12 -2 9 4 -6 10 -25 14 -25 6z"/>
<path d="M5158 4033 c7 -3 16 -2 19 1 4 3 -2 6 -13 5 -11 0 -14 -3 -6 -6z"/>
<path d="M3785 2480 c3 -5 8 -10 11 -10 2 0 4 5 4 10 0 6 -5 10 -11 10 -5 0
-7 -4 -4 -10z"/>
<path d="M4278 2473 c67 -2 177 -2 245 0 67 1 12 3 -123 3 -135 0 -190 -2
-122 -3z"/>
<path d="M5538 2473 c12 -2 32 -2 45 0 12 2 2 4 -23 4 -25 0 -35 -2 -22 -4z"/>
<path d="M5373 2463 c9 -2 23 -2 30 0 6 3 -1 5 -18 5 -16 0 -22 -2 -12 -5z"/>
<path d="M5693 2463 c9 -2 23 -2 30 0 6 3 -1 5 -18 5 -16 0 -22 -2 -12 -5z"/>
<path d="M4978 2453 c12 -2 32 -2 45 0 12 2 2 4 -23 4 -25 0 -35 -2 -22 -4z"/>
<path d="M5523 2453 c15 -2 39 -2 55 0 15 2 2 4 -28 4 -30 0 -43 -2 -27 -4z"/>
<path d="M2548 3103 c12 -2 30 -2 40 0 9 3 -1 5 -23 4 -22 0 -30 -2 -17 -4z"/>
<path d="M3036 2995 c-13 -10 -20 -27 -20 -50 0 -63 74 -89 113 -40 16 22 18
31 9 55 -11 33 -23 42 -13 10 8 -26 -19 -70 -44 -70 -23 0 -51 31 -51 58 0 11
10 28 22 36 12 9 18 16 13 16 -6 0 -19 -7 -29 -15z"/>
<path d="M2595 2693 c8 -18 18 -33 20 -33 10 0 4 16 -16 40 l-20 25 16 -32z"/>
<path d="M6603 3113 c9 -2 23 -2 30 0 6 3 -1 5 -18 5 -16 0 -22 -2 -12 -5z"/>
<path d="M7015 3090 c-3 -5 -1 -10 4 -10 6 0 11 5 11 10 0 6 -2 10 -4 10 -3 0
-8 -4 -11 -10z"/>
<path d="M6472 2967 c-28 -30 -28 -61 0 -87 30 -27 62 -25 87 6 25 32 26 52 5
82 -20 29 -64 29 -92 -1z m69 3 c23 -13 25 -53 3 -74 -20 -20 -33 -20 -56 1
-24 22 -23 49 4 67 27 19 24 19 49 6z"/>
<path d="M6402 2690 c-1 -63 -8 -141 -16 -172 -7 -32 -10 -58 -6 -58 16 0 31
137 28 240 l-4 105 -2 -115z"/>
<path d="M7018 8094 c-38 -20 -35 -26 5 -10 17 7 39 16 47 19 11 4 9 6 -5 6
-11 0 -32 -7 -47 -15z"/>
<path d="M7711 8067 c9 -7 26 -28 38 -47 13 -22 21 -29 21 -18 0 17 -53 78
-67 78 -4 0 -1 -6 8 -13z"/>
<path d="M6955 8050 c-10 -11 -16 -22 -14 -24 2 -2 12 7 22 20 22 29 17 32 -8
4z"/>
<path d="M7183 8063 c9 -2 25 -2 35 0 9 3 1 5 -18 5 -19 0 -27 -2 -17 -5z"/>
<path d="M7548 8063 c18 -2 45 -2 60 0 15 2 0 4 -33 4 -33 0 -45 -2 -27 -4z"/>
<path d="M7640 8056 c0 -2 15 -13 34 -24 24 -14 38 -32 45 -57 5 -20 10 -147
11 -283 0 -135 3 -248 6 -251 3 -3 4 118 2 269 -2 200 -6 281 -16 297 -14 26
-82 66 -82 49z"/>
<path d="M1693 7983 c9 -2 25 -2 35 0 9 3 1 5 -18 5 -19 0 -27 -2 -17 -5z"/>
<path d="M1787 7983 c18 -2 50 -2 70 0 21 2 7 4 -32 4 -38 0 -55 -2 -38 -4z"/>
<path d="M1943 7983 c15 -2 39 -2 55 0 15 2 2 4 -28 4 -30 0 -43 -2 -27 -4z"/>
<path d="M6923 7925 c0 -38 2 -53 4 -32 2 20 2 52 0 70 -2 17 -4 1 -4 -38z"/>
<path d="M1495 7964 c-47 -24 -74 -54 -85 -93 -5 -20 -10 -155 -10 -301 0
-256 1 -267 23 -310 15 -32 34 -51 62 -65 38 -19 60 -20 390 -20 346 0 351 0
397 23 48 24 88 73 88 108 -1 13 -5 10 -14 -11 -19 -41 -54 -72 -105 -90 -36
-12 -103 -15 -380 -15 -479 0 -456 -21 -449 411 3 253 4 266 25 295 30 42 69
67 118 75 l40 6 -35 2 c-19 0 -48 -6 -65 -15z"/>
<path d="M2188 7973 c7 -3 16 -2 19 1 4 3 -2 6 -13 5 -11 0 -14 -3 -6 -6z"/>
<path d="M7771 7954 c0 -11 3 -14 6 -6 3 7 2 16 -1 19 -3 4 -6 -2 -5 -13z"/>
<path d="M7773 7880 c0 -25 2 -35 4 -22 2 12 2 32 0 45 -2 12 -4 2 -4 -23z"/>
<path d="M7308 7893 c34 -2 90 -2 125 0 34 2 6 3 -63 3 -69 0 -97 -1 -62 -3z"/>
<path d="M7145 7879 c-11 -16 -1 -19 13 -3 7 8 8 14 3 14 -5 0 -13 -5 -16 -11z"/>
<path d="M7461 7805 c-23 -25 -40 -45 -36 -45 3 0 25 20 48 45 24 25 41 45 37
45 -4 0 -26 -20 -49 -45z"/>
<path d="M7540 7835 c0 -5 5 -17 10 -25 5 -8 10 -10 10 -5 0 6 -5 17 -10 25
-5 8 -10 11 -10 5z"/>
<path d="M2040 7770 c-1 -8 -2 -21 -1 -27 1 -7 -5 -13 -14 -13 -8 0 -15 -4
-15 -10 0 -12 10 -13 28 -1 8 5 12 20 9 37 -2 16 -5 22 -7 14z"/>
<path d="M7552 7750 c0 -19 2 -27 5 -17 2 9 2 25 0 35 -3 9 -5 1 -5 -18z"/>
<path d="M2171 7753 c7 -12 15 -20 18 -17 3 2 -3 12 -13 22 -17 16 -18 16 -5
-5z"/>
<path d="M7770 7587 l-5 -179 -33 -29 c-19 -17 -26 -29 -18 -29 23 0 55 39 61
74 3 17 5 101 3 186 l-3 155 -5 -178z"/>
<path d="M1596 7698 c-13 -18 -16 -53 -16 -175 0 -83 3 -154 8 -156 4 -3 6 66
4 153 -3 149 -2 160 17 179 12 12 17 21 12 21 -6 0 -17 -10 -25 -22z"/>
<path d="M1713 7713 c20 -2 54 -2 75 0 20 2 3 4 -38 4 -41 0 -58 -2 -37 -4z"/>
<path d="M1943 7713 c9 -2 23 -2 30 0 6 3 -1 5 -18 5 -16 0 -22 -2 -12 -5z"/>
<path d="M2194 7535 c0 -99 2 -138 3 -87 2 51 2 132 0 180 -1 48 -3 6 -3 -93z"/>
<path d="M7547 7570 c-3 -11 -1 -20 4 -20 5 0 9 9 9 20 0 11 -2 20 -4 20 -2 0
-6 -9 -9 -20z"/>
<path d="M7448 7543 c6 -2 18 -2 25 0 6 3 1 5 -13 5 -14 0 -19 -2 -12 -5z"/>
<path d="M7515 7540 c3 -5 8 -10 11 -10 2 0 4 5 4 10 0 6 -5 10 -11 10 -5 0
-7 -4 -4 -10z"/>
<path d="M7218 7533 c6 -2 18 -2 25 0 6 3 1 5 -13 5 -14 0 -19 -2 -12 -5z"/>
<path d="M6922 7500 c0 -14 2 -19 5 -12 2 6 2 18 0 25 -3 6 -5 1 -5 -13z"/>
<path d="M6930 7455 c0 -27 44 -78 83 -95 39 -18 65 -19 357 -18 l315 2 -320
6 c-316 5 -321 5 -359 29 -21 13 -47 38 -57 55 -10 17 -19 27 -19 21z"/>
<path d="M1622 7345 c10 -10 508 -16 508 -5 0 7 -87 10 -257 10 -141 0 -254
-2 -251 -5z"/>
<path d="M1482 7234 c10 -10 20 -16 22 -13 3 3 -5 11 -17 18 -21 13 -21 12 -5
-5z"/>
<path d="M8200 7046 c0 -2 11 -6 25 -8 13 -3 22 -1 19 3 -5 9 -44 13 -44 5z"/>
<path d="M7474 6988 l-19 -23 23 19 c21 18 27 26 19 26 -2 0 -12 -10 -23 -22z"/>
<path d="M8330 6997 c0 -5 5 -18 12 -30 6 -12 15 -35 19 -52 6 -27 7 -28 8 -5
0 22 -38 108 -39 87z"/>
<path d="M7755 6919 c-4 -6 -5 -12 -2 -15 2 -3 7 2 10 11 7 17 1 20 -8 4z"/>
<path d="M8052 6890 c0 -19 2 -27 5 -17 2 9 2 25 0 35 -3 9 -5 1 -5 -18z"/>
<path d="M1485 6870 c-16 -11 -25 -20 -18 -20 6 0 14 -8 16 -17 3 -13 5 -11 6
6 0 13 9 30 19 37 26 21 11 16 -23 -6z"/>
<path d="M8363 6800 c0 -47 2 -66 4 -42 2 23 2 61 0 85 -2 23 -4 4 -4 -43z"/>
<path d="M2090 6820 c6 -11 13 -20 16 -20 2 0 0 9 -6 20 -6 11 -13 20 -16 20
-2 0 0 -9 6 -20z"/>
<path d="M1325 6804 c-29 -31 -29 -39 -25 -389 2 -244 8 -273 60 -300 28 -15
69 -16 344 -13 265 3 315 6 341 20 39 21 60 45 74 87 17 51 7 48 -20 -6 -39
-78 -44 -79 -383 -88 -339 -8 -355 -6 -387 56 -19 38 -20 55 -17 324 l3 283
24 26 c14 14 21 26 17 26 -4 0 -18 -12 -31 -26z"/>
<path d="M8056 6766 c3 -8 12 -12 21 -9 12 5 12 7 1 14 -20 13 -28 11 -22 -5z"/>
<path d="M8128 6773 c12 -2 32 -2 45 0 12 2 2 4 -23 4 -25 0 -35 -2 -22 -4z"/>
<path d="M7630 6760 c-8 -5 -10 -10 -5 -10 6 0 17 5 25 10 8 5 11 10 5 10 -5
0 -17 -5 -25 -10z"/>
<path d="M7683 6763 c9 -2 25 -2 35 0 9 3 1 5 -18 5 -19 0 -27 -2 -17 -5z"/>
<path d="M8204 6757 c3 -10 6 -82 6 -159 0 -78 2 -139 5 -137 2 3 5 69 6 147
2 107 -1 146 -11 155 -10 10 -12 8 -6 -6z"/>
<path d="M7612 6555 c-2 -189 2 -215 32 -215 5 0 2 6 -7 13 -14 10 -17 38 -20
202 l-2 190 -3 -190z"/>
<path d="M8050 6732 c0 -7 -15 -21 -32 -32 -18 -11 -28 -20 -21 -20 18 0 69
47 61 56 -5 4 -8 2 -8 -4z"/>
<path d="M1708 6703 c6 -2 18 -2 25 0 6 3 1 5 -13 5 -14 0 -19 -2 -12 -5z"/>
<path d="M1655 6680 c-26 -28 -15 -31 14 -3 13 13 20 23 14 23 -5 0 -18 -9
-28 -20z"/>
<path d="M1760 6686 c0 -2 7 -9 15 -16 9 -7 15 -8 15 -2 0 5 -7 12 -15 16 -8
3 -15 4 -15 2z"/>
<path d="M7930 6670 c-20 -6 -21 -8 -5 -8 11 0 29 3 40 8 25 11 -1 11 -35 0z"/>
<path d="M7845 6640 c-3 -6 1 -7 9 -4 18 7 21 14 7 14 -6 0 -13 -4 -16 -10z"/>
<path d="M8362 6620 c0 -14 2 -19 5 -12 2 6 2 18 0 25 -3 6 -5 1 -5 -13z"/>
<path d="M1802 6610 c0 -14 2 -19 5 -12 2 6 2 18 0 25 -3 6 -5 1 -5 -13z"/>
<path d="M1547 6603 c-3 -5 15 -8 39 -8 24 0 44 3 44 7 0 10 -77 10 -83 1z"/>
<path d="M7826 6595 c-3 -9 -6 -26 -5 -38 1 -14 4 -9 9 13 9 37 7 52 -4 25z"/>
<path d="M8364 6450 c0 -63 1 -89 3 -57 2 31 2 83 0 115 -2 31 -3 5 -3 -58z"/>
<path d="M1526 6525 c-3 -9 -6 -24 -5 -33 0 -9 5 -4 10 12 9 32 6 48 -5 21z"/>
<path d="M1906 6475 c9 -14 19 -24 21 -21 6 6 -20 46 -30 46 -4 0 0 -11 9 -25z"/>
<path d="M8023 6483 c9 -2 25 -2 35 0 9 3 1 5 -18 5 -19 0 -27 -2 -17 -5z"/>
<path d="M1501 6434 c0 -11 3 -14 6 -6 3 7 2 16 -1 19 -3 4 -6 -2 -5 -13z"/>
<path d="M1857 6355 l-69 -73 -133 -1 c-160 -2 -169 3 -161 83 l5 51 -11 -43
c-7 -29 -8 -53 -2 -70 l9 -27 151 -3 150 -3 34 38 c18 21 51 57 74 81 22 23
36 41 31 41 -6 -1 -41 -34 -78 -74z"/>
<path d="M8210 6355 c0 -8 2 -15 4 -15 2 0 6 7 10 15 3 8 1 15 -4 15 -6 0 -10
-7 -10 -15z"/>
<path d="M7670 6338 c0 -5 114 -8 254 -8 140 0 257 3 259 8 3 4 -111 7 -254 7
-142 0 -259 -3 -259 -7z"/>
<path d="M8346 6275 c-5 -23 -17 -42 -39 -57 -31 -23 -37 -23 -353 -26 -368
-4 -424 2 -466 48 -16 17 -28 27 -28 22 0 -20 59 -62 100 -71 26 -6 184 -11
375 -11 371 0 384 2 417 70 19 39 22 60 9 60 -5 0 -12 -16 -15 -35z"/>
<path d="M8302 6265 c-7 -14 -22 -30 -34 -35 -18 -8 -19 -9 -4 -7 19 2 64 53
54 62 -2 3 -10 -6 -16 -20z"/>
<path d="M7540 6230 c8 -5 20 -10 25 -10 6 0 3 5 -5 10 -8 5 -19 10 -25 10 -5
0 -3 -5 5 -10z"/>
<path d="M7813 6213 c75 -2 199 -2 275 0 75 1 13 3 -138 3 -151 0 -213 -2
-137 -3z"/>
<path d="M8018 5983 c12 -2 32 -2 45 0 12 2 2 4 -23 4 -25 0 -35 -2 -22 -4z"/>
<path d="M8168 5983 c7 -3 16 -2 19 1 4 3 -2 6 -13 5 -11 0 -14 -3 -6 -6z"/>
<path d="M8296 5965 c89 -44 89 -44 89 -435 0 -330 0 -335 -22 -366 -41 -57
-56 -59 -418 -59 -311 0 -332 1 -359 20 -16 10 -37 33 -47 50 -11 16 -19 26
-19 20 0 -5 9 -25 20 -43 36 -59 54 -62 417 -62 300 0 331 2 363 19 19 10 44
30 55 45 19 26 20 41 20 374 0 347 0 347 -23 385 -24 37 -54 58 -102 71 -14 4
-2 -5 26 -19z"/>
<path d="M7643 5973 c9 -2 25 -2 35 0 9 3 1 5 -18 5 -19 0 -27 -2 -17 -5z"/>
<path d="M8198 5923 c12 -2 30 -2 40 0 9 3 -1 5 -23 4 -22 0 -30 -2 -17 -4z"/>
<path d="M7920 5775 c-11 -13 -10 -14 4 -9 9 3 16 10 16 15 0 13 -6 11 -20 -6z"/>
<path d="M1472 5750 c0 -14 2 -19 5 -12 2 6 2 18 0 25 -3 6 -5 1 -5 -13z"/>
<path d="M1703 5743 c26 -2 68 -2 95 0 26 2 4 3 -48 3 -52 0 -74 -1 -47 -3z"/>
<path d="M1928 5743 c7 -3 16 -2 19 1 4 3 -2 6 -13 5 -11 0 -14 -3 -6 -6z"/>
<path d="M2010 5726 c0 -2 7 -7 16 -10 8 -3 12 -2 9 4 -6 10 -25 14 -25 6z"/>
<path d="M7764 5715 c-3 -8 -4 -20 -1 -27 3 -7 6 -3 6 9 1 12 9 24 19 26 16 4
16 5 -1 6 -10 0 -20 -6 -23 -14z"/>
<path d="M7833 5723 c15 -2 37 -2 50 0 12 2 0 4 -28 4 -27 0 -38 -2 -22 -4z"/>
<path d="M8008 5723 c12 -2 32 -2 45 0 12 2 2 4 -23 4 -25 0 -35 -2 -22 -4z"/>
<path d="M8152 5673 l-2 -53 34 0 c19 0 36 -6 38 -12 2 -7 5 -86 7 -174 4
-222 25 -206 -257 -200 -140 4 -212 2 -202 -4 8 -5 109 -10 227 -10 208 0 212
0 227 22 13 18 16 55 16 193 0 184 -3 195 -51 195 -26 0 -28 3 -32 48 l-3 47
-2 -52z"/>
<path d="M1239 5693 c-13 -16 -12 -17 4 -4 16 13 21 21 13 21 -2 0 -10 -8 -17
-17z"/>
<path d="M1216 5655 c-3 -9 -6 -22 -5 -28 0 -7 5 -1 10 12 5 13 8 26 5 28 -2
2 -6 -3 -10 -12z"/>
<path d="M2016 5637 c3 -10 9 -15 12 -12 3 3 0 11 -7 18 -10 9 -11 8 -5 -6z"/>
<path d="M7704 5530 c0 -52 1 -74 3 -47 2 26 2 68 0 95 -2 26 -3 4 -3 -48z"/>
<path d="M1202 5590 c0 -14 2 -19 5 -12 2 6 2 18 0 25 -3 6 -5 1 -5 -13z"/>
<path d="M1284 5490 c0 -63 1 -89 3 -57 2 31 2 83 0 115 -2 31 -3 5 -3 -58z"/>
<path d="M2033 5540 c0 -36 2 -50 4 -32 2 17 2 47 0 65 -2 17 -4 3 -4 -33z"/>
<path d="M1486 5544 c-14 -15 -26 -31 -26 -36 0 -5 12 4 26 22 19 22 32 29 46
24 14 -4 18 -2 14 5 -11 18 -32 13 -60 -15z"/>
<path d="M1462 5343 c-1 -68 1 -123 6 -123 4 0 6 37 4 82 -5 150 -8 165 -10
41z"/>
<path d="M7902 5438 c3 -20 10 -23 56 -26 29 -2 52 1 52 7 0 5 3 16 6 25 5 13
-2 16 -42 14 -45 -1 -46 -2 -11 -5 50 -6 43 -28 -9 -28 -32 0 -38 3 -36 18 2
9 -2 17 -8 17 -6 0 -10 -10 -8 -22z"/>
<path d="M1687 5399 c7 -7 15 -10 18 -7 3 3 -2 9 -12 12 -14 6 -15 5 -6 -5z"/>
<path d="M7701 5350 c0 -36 3 -71 7 -78 5 -7 7 16 5 50 -6 91 -11 103 -12 28z"/>
<path d="M1719 5368 c8 -11 11 -28 6 -45 -5 -23 -4 -25 9 -14 22 18 20 35 -6
57 -18 15 -20 16 -9 2z"/>
<path d="M1933 5328 c-10 -13 -46 -49 -81 -80 -60 -55 -64 -57 -125 -61 l-62
-3 67 -2 68 -2 70 67 c63 59 100 103 86 103 -2 0 -13 -10 -23 -22z"/>
<path d="M1283 5225 c0 -33 2 -45 4 -27 2 18 2 45 0 60 -2 15 -4 0 -4 -33z"/>
<path d="M7513 5245 c0 -22 2 -30 4 -17 2 12 2 30 0 40 -3 9 -5 -1 -4 -23z"/>
<path d="M1201 5214 c0 -11 3 -14 6 -6 3 7 2 16 -1 19 -3 4 -6 -2 -5 -13z"/>
<path d="M8361 5214 c0 -11 3 -14 6 -6 3 7 2 16 -1 19 -3 4 -6 -2 -5 -13z"/>
<path d="M1538 5193 c17 -2 47 -2 65 0 17 2 3 4 -33 4 -36 0 -50 -2 -32 -4z"/>
<path d="M1282 5130 c0 -14 2 -19 5 -12 2 6 2 18 0 25 -3 6 -5 1 -5 -13z"/>
<path d="M8193 5123 c9 -2 25 -2 35 0 9 3 1 5 -18 5 -19 0 -27 -2 -17 -5z"/>
<path d="M1211 5099 c-1 -32 36 -89 69 -106 19 -9 99 -12 310 -11 l285 2 -285
6 c-188 3 -292 9 -305 17 -32 18 -52 45 -63 83 -9 31 -10 32 -11 9z"/>
<path d="M1960 5030 l-45 -7 42 -1 c23 -1 45 3 48 8 3 6 5 9 3 8 -2 0 -23 -4
-48 -8z"/>
<path d="M2036 5025 c-11 -8 -15 -15 -9 -15 6 0 16 7 23 15 16 19 11 19 -14 0z"/>
<path d="M1308 5023 c7 -3 16 -2 19 1 4 3 -2 6 -13 5 -11 0 -14 -3 -6 -6z"/>
<path d="M1458 5013 c56 -2 148 -2 205 0 56 1 10 3 -103 3 -113 0 -159 -2
-102 -3z"/>
<path d="M1930 4990 c-12 -8 -11 -10 5 -9 11 1 34 5 50 9 l30 8 -35 1 c-19 0
-42 -4 -50 -9z"/>
<path d="M7758 4863 c18 -2 45 -2 60 0 15 2 0 4 -33 4 -33 0 -45 -2 -27 -4z"/>
<path d="M7958 4863 c23 -2 61 -2 85 0 23 2 4 4 -43 4 -47 0 -66 -2 -42 -4z"/>
<path d="M8348 4863 c12 -2 30 -2 40 0 9 3 -1 5 -23 4 -22 0 -30 -2 -17 -4z"/>
<path d="M8467 4796 c10 -13 19 -23 21 -21 5 5 -22 45 -31 45 -4 0 0 -11 10
-24z"/>
<path d="M8498 4447 c2 -204 -1 -325 -8 -349 -7 -25 -22 -44 -48 -60 -37 -23
-41 -23 -417 -28 -361 -6 -368 -6 -135 -9 450 -6 509 -3 556 25 27 15 46 35
53 55 12 36 16 646 3 666 -4 6 -6 -129 -4 -300z"/>
<path d="M7531 4704 c0 -11 3 -14 6 -6 3 7 2 16 -1 19 -3 4 -6 -2 -5 -13z"/>
<path d="M1132 4652 c-22 -7 412 -5 508 1 25 2 -74 4 -220 4 -146 1 -275 -2
-288 -5z"/>
<path d="M1765 4655 c24 -8 116 -12 103 -4 -7 5 -35 8 -63 8 -27 0 -45 -2 -40
-4z"/>
<path d="M8192 4629 c0 -18 -7 -36 -14 -40 -8 -6 0 -8 22 -8 22 0 29 3 19 7
-9 4 -15 17 -14 29 1 12 -1 27 -5 33 -4 6 -7 -3 -8 -21z"/>
<path d="M1062 4620 c-18 -11 -41 -34 -52 -52 -19 -31 -20 -49 -18 -328 l2
-295 6 300 c4 271 7 303 24 328 10 15 21 27 25 27 7 0 58 39 51 40 -3 0 -20
-9 -38 -20z"/>
<path d="M1890 4636 c0 -2 8 -10 18 -17 15 -13 16 -12 3 4 -13 16 -21 21 -21
13z"/>
<path d="M7860 4603 c0 -14 3 -23 7 -19 10 10 11 46 1 46 -4 0 -8 -12 -8 -27z"/>
<path d="M1793 4613 c9 -2 25 -2 35 0 9 3 1 5 -18 5 -19 0 -27 -2 -17 -5z"/>
<path d="M7923 4583 c15 -2 39 -2 55 0 15 2 2 4 -28 4 -30 0 -43 -2 -27 -4z"/>
<path d="M8098 4583 c12 -2 32 -2 45 0 12 2 2 4 -23 4 -25 0 -35 -2 -22 -4z"/>
<path d="M8248 4583 c6 -2 18 -2 25 0 6 3 1 5 -13 5 -14 0 -19 -2 -12 -5z"/>
<path d="M7736 4565 c-3 -9 -6 -22 -5 -28 0 -7 5 -1 10 12 5 13 8 26 5 28 -2
2 -6 -3 -10 -12z"/>
<path d="M8308 4395 c3 -173 2 -184 -17 -194 -12 -7 -114 -10 -280 -8 -143 1
-253 -1 -243 -5 32 -13 527 -9 540 4 13 13 18 373 5 381 -5 3 -7 -77 -5 -178z"/>
<path d="M7733 4470 c0 -30 2 -43 4 -27 2 15 2 39 0 55 -2 15 -4 2 -4 -28z"/>
<path d="M8065 4450 c-3 -6 1 -7 9 -4 18 7 21 14 7 14 -6 0 -13 -4 -16 -10z"/>
<path d="M1196 4374 c-5 -14 -4 -15 9 -4 17 14 19 20 6 20 -5 0 -12 -7 -15
-16z"/>
<path d="M8050 4380 c-8 -5 -10 -10 -5 -10 6 0 17 5 25 10 8 5 11 10 5 10 -5
0 -17 -5 -25 -10z"/>
<path d="M7532 4345 c0 -16 2 -22 5 -12 2 9 2 23 0 30 -3 6 -5 -1 -5 -18z"/>
<path d="M7842 4355 c2 -16 12 -20 43 -21 28 -1 31 0 10 3 -16 2 -36 12 -43
21 -13 16 -14 15 -10 -3z"/>
<path d="M1744 4175 c0 -99 2 -138 3 -87 2 51 2 132 0 180 -1 48 -3 6 -3 -93z"/>
<path d="M1184 4175 c0 -93 2 -133 3 -88 2 45 2 122 0 170 -1 48 -3 12 -3 -82z"/>
<path d="M1692 4290 c-18 -17 -29 -30 -24 -30 5 0 21 14 37 30 37 38 30 38
-13 0z"/>
<path d="M7731 4273 c0 -28 2 -54 7 -57 4 -2 6 14 4 37 -5 68 -10 76 -11 20z"/>
<path d="M1563 4245 c-54 -59 -40 -58 17 0 24 25 40 45 35 45 -6 -1 -29 -21
-52 -45z"/>
<path d="M1340 4267 c0 -3 24 -22 53 -42 34 -25 45 -30 30 -14 -21 24 -83 65
-83 56z"/>
<path d="M7533 4195 c0 -38 2 -53 4 -32 2 20 2 52 0 70 -2 17 -4 1 -4 -38z"/>
<path d="M1360 4216 c0 -2 8 -10 18 -17 15 -13 16 -12 3 4 -13 16 -21 21 -21
13z"/>
<path d="M1599 4193 c-13 -16 -12 -17 4 -4 9 7 17 15 17 17 0 8 -8 3 -21 -13z"/>
<path d="M1464 4176 c14 -12 22 -12 37 -3 10 6 16 13 13 16 -2 3 -9 0 -16 -7
-8 -8 -17 -8 -32 -1 -20 10 -20 9 -2 -5z"/>
<path d="M1415 4160 c10 -11 20 -20 23 -20 3 0 -3 9 -13 20 -10 11 -20 20 -23
20 -3 0 3 -9 13 -20z"/>
<path d="M1450 4130 c0 -5 5 -10 11 -10 5 0 7 5 4 10 -3 6 -8 10 -11 10 -2 0
-4 -4 -4 -10z"/>
<path d="M1488 4113 c6 -2 18 -2 25 0 6 3 1 5 -13 5 -14 0 -19 -2 -12 -5z"/>
<path d="M7559 4043 c6 -12 26 -32 43 -45 l33 -23 385 -1 385 0 -386 5 c-415
6 -393 3 -447 61 -21 22 -22 23 -13 3z"/>
<path d="M7600 4036 c0 -3 9 -10 20 -16 11 -6 20 -8 20 -6 0 3 -9 10 -20 16
-11 6 -20 8 -20 6z"/>
<path d="M8430 4000 c-9 -6 -10 -10 -3 -10 6 0 15 5 18 10 8 12 4 12 -15 0z"/>
<path d="M1726 3983 c-4 -5 -123 -10 -264 -13 l-257 -6 255 -2 c228 -1 297 4
279 22 -3 4 -9 3 -13 -1z"/>
<path d="M1030 3905 c0 -21 34 -58 66 -71 25 -11 79 -14 216 -12 l183 2 -191
5 c-202 6 -205 7 -251 60 -13 14 -23 21 -23 16z"/>
<path d="M1000 3890 c0 -37 65 -91 107 -89 16 1 15 2 -2 8 -48 16 -75 36 -89
65 -9 17 -16 24 -16 16z"/>
<path d="M1905 3860 c-16 -16 -24 -30 -18 -30 10 0 34 24 47 48 12 20 2 14
-29 -18z"/>
<path d="M1855 3851 c-6 -5 -28 -11 -50 -14 l-40 -4 41 -1 c26 -1 46 3 54 13
14 16 10 21 -5 6z"/>
<path d="M1563 3823 c9 -2 23 -2 30 0 6 3 -1 5 -18 5 -16 0 -22 -2 -12 -5z"/>
<path d="M1720 3810 l-125 -6 120 -1 c66 -1 131 3 145 7 18 6 20 8 5 7 -11 -1
-76 -4 -145 -7z"/>
<path d="M1238 3793 c61 -2 163 -2 225 0 61 1 11 3 -113 3 -124 0 -174 -2
-112 -3z"/>
<path d="M8018 3753 c12 -2 30 -2 40 0 9 3 -1 5 -23 4 -22 0 -30 -2 -17 -4z"/>
<path d="M8168 3753 c17 -2 47 -2 65 0 17 2 3 4 -33 4 -36 0 -50 -2 -32 -4z"/>
<path d="M8323 3753 c15 -2 39 -2 55 0 15 2 2 4 -28 4 -30 0 -43 -2 -27 -4z"/>
<path d="M8420 3747 c0 -2 13 -13 30 -25 17 -13 27 -17 24 -8 -4 11 -54 41
-54 33z"/>
<path d="M7660 3688 c-11 -18 -19 -44 -19 -58 1 -21 2 -20 9 7 4 18 15 44 24
58 9 14 14 25 11 25 -3 0 -14 -15 -25 -32z"/>
<path d="M8173 3703 c9 -2 23 -2 30 0 6 3 -1 5 -18 5 -16 0 -22 -2 -12 -5z"/>
<path d="M8313 3703 c15 -2 39 -2 55 0 15 2 2 4 -28 4 -30 0 -43 -2 -27 -4z"/>
<path d="M7733 3680 c-18 -11 -33 -25 -33 -32 1 -8 6 -6 15 5 7 11 31 25 52
32 22 8 30 14 18 15 -11 0 -35 -9 -52 -20z"/>
<path d="M8500 3365 c0 -300 -5 -338 -47 -365 -11 -7 -12 -10 -3 -7 8 2 25 18
38 37 22 32 22 39 22 326 0 162 -2 294 -5 294 -3 0 -5 -128 -5 -285z"/>
<path d="M1218 3553 c12 -2 32 -2 45 0 12 2 2 4 -23 4 -25 0 -35 -2 -22 -4z"/>
<path d="M1653 3553 c9 -2 23 -2 30 0 6 3 -1 5 -18 5 -16 0 -22 -2 -12 -5z"/>
<path d="M1145 3528 c-52 -40 -55 -63 -55 -365 0 -249 2 -282 19 -319 15 -32
28 -45 62 -58 40 -16 68 -17 288 -11 218 7 248 10 278 27 19 11 40 32 47 47
20 39 28 81 16 81 -5 0 -10 -13 -10 -29 0 -15 -9 -40 -21 -55 -42 -53 -57 -56
-329 -56 -219 0 -256 2 -281 17 -51 30 -54 52 -54 368 0 274 1 291 20 317 11
14 31 33 45 42 14 8 20 16 14 16 -6 0 -24 -10 -39 -22z"/>
<path d="M1730 3533 c0 -7 5 -13 10 -13 6 0 19 -15 30 -32 11 -18 20 -27 20
-21 0 17 -59 82 -60 66z"/>
<path d="M8227 3519 c4 -13 8 -18 11 -10 2 7 -1 18 -6 23 -8 8 -9 4 -5 -13z"/>
<path d="M7905 3500 c-3 -5 -1 -10 4 -10 6 0 11 5 11 10 0 6 -2 10 -4 10 -3 0
-8 -4 -11 -10z"/>
<path d="M1613 3493 c9 -2 23 -2 30 0 6 3 -1 5 -18 5 -16 0 -22 -2 -12 -5z"/>
<path d="M7818 3479 c-16 -9 -18 -28 -18 -158 0 -102 4 -152 13 -164 11 -16
36 -17 266 -15 216 3 255 5 259 18 4 12 2 13 -9 3 -18 -18 -490 -18 -507 -1
-8 8 -12 56 -12 152 0 116 3 143 17 158 18 20 16 22 -9 7z"/>
<path d="M8344 3330 c0 -74 1 -105 3 -67 2 37 2 97 0 135 -2 37 -3 6 -3 -68z"/>
<path d="M1792 3430 c0 -14 2 -19 5 -12 2 6 2 18 0 25 -3 6 -5 1 -5 -13z"/>
<path d="M8474 3320 c0 -69 1 -97 3 -62 2 34 2 90 0 125 -2 34 -3 6 -3 -63z"/>
<path d="M1613 3290 c0 -25 2 -35 4 -22 2 12 2 32 0 45 -2 12 -4 2 -4 -23z"/>
<path d="M1583 3233 c15 -2 37 -2 50 0 12 2 0 4 -28 4 -27 0 -38 -2 -22 -4z"/>
<path d="M1244 3217 c-2 -7 -3 -74 -2 -148 l3 -134 198 -3 c125 -1 205 1 217
8 18 10 20 22 20 145 0 73 -3 136 -7 138 -5 3 -7 -54 -5 -126 3 -116 1 -133
-14 -144 -13 -10 -70 -13 -211 -13 l-193 0 0 133 c0 90 4 137 12 145 9 9 9 12
0 12 -7 0 -15 -6 -18 -13z"/>
<path d="M7643 3130 c0 -30 2 -43 4 -27 2 15 2 39 0 55 -2 15 -4 2 -4 -28z"/>
<path d="M8467 3092 c-4 -18 -20 -47 -36 -63 -27 -27 -35 -29 -113 -31 l-83
-2 70 -3 c38 -2 80 -1 92 2 46 11 93 80 81 117 -3 7 -8 -2 -11 -20z"/>
<path d="M1430 3092 c0 -4 20 -7 45 -7 25 0 45 3 45 8 0 4 -20 7 -45 7 -25 0
-45 -3 -45 -8z"/>
<path d="M1506 3043 c-6 -14 -5 -15 5 -6 7 7 10 15 7 18 -3 3 -9 -2 -12 -12z"/>
<path d="M7660 3032 c13 -26 67 -63 90 -61 9 1 8 3 -4 6 -15 4 -16 7 -5 15 11
7 9 9 -8 5 -13 -3 -24 1 -27 9 -3 8 -11 14 -17 14 -7 0 -18 8 -26 18 -13 15
-13 15 -3 -6z"/>
<path d="M7783 2993 c15 -2 37 -2 50 0 12 2 0 4 -28 4 -27 0 -38 -2 -22 -4z"/>
<path d="M7968 2993 c29 -2 74 -2 100 0 26 2 2 3 -53 3 -55 0 -76 -1 -47 -3z"/>
<path d="M7818 2963 c7 -3 16 -2 19 1 4 3 -2 6 -13 5 -11 0 -14 -3 -6 -6z"/>
<path d="M8018 2963 c12 -2 32 -2 45 0 12 2 2 4 -23 4 -25 0 -35 -2 -22 -4z"/>
<path d="M8173 2963 c9 -2 25 -2 35 0 9 3 1 5 -18 5 -19 0 -27 -2 -17 -5z"/>
<path d="M8358 2963 c7 -3 16 -2 19 1 4 3 -2 6 -13 5 -11 0 -14 -3 -6 -6z"/>
<path d="M7740 2731 c-19 -10 -48 -37 -65 -60 l-30 -43 -1 -271 0 -272 5 270
c4 184 10 277 18 291 24 42 81 83 125 89 24 3 174 5 335 3 278 -3 293 -4 320
-24 52 -39 53 -46 53 -377 0 -341 -1 -345 -64 -383 -29 -18 -55 -19 -363 -19
-183 0 -333 -3 -333 -7 0 -12 668 -10 691 2 11 6 19 7 19 2 0 -6 -10 -12 -22
-16 -39 -10 -688 -7 -701 4 -71 57 -71 57 -78 111 l-6 54 -2 -45 c-1 -55 25
-102 70 -126 27 -13 74 -17 263 -21 127 -3 286 -1 353 5 118 9 123 11 155 42
23 23 26 28 8 16 -41 -27 -46 -18 -9 20 l34 35 0 327 c0 311 -1 328 -20 354
-41 56 -54 58 -402 58 -291 0 -321 -2 -353 -19z"/>
<path d="M7848 2693 c6 -2 18 -2 25 0 6 3 1 5 -13 5 -14 0 -19 -2 -12 -5z"/>
<path d="M8338 2693 c12 -2 32 -2 45 0 12 2 2 4 -23 4 -25 0 -35 -2 -22 -4z"/>
<path d="M8444 2648 c16 -21 30 -38 33 -38 8 0 -16 36 -38 55 -19 16 -18 13 5
-17z"/>
<path d="M1433 2593 c71 -2 183 -2 250 0 67 1 10 3 -128 3 -137 0 -192 -2
-122 -3z"/>
<path d="M1240 2575 c-14 -8 -20 -14 -15 -14 6 0 21 6 35 14 14 8 21 14 15 14
-5 0 -21 -6 -35 -14z"/>
<path d="M1896 2539 c16 -20 31 -34 33 -32 3 2 -10 18 -29 36 l-34 32 30 -36z"/>
<path d="M1171 2516 c-12 -18 -21 -40 -21 -47 1 -8 8 0 17 16 8 17 22 38 31
48 8 9 10 17 4 17 -6 0 -20 -15 -31 -34z"/>
<path d="M8020 2539 c0 -5 5 -7 10 -4 6 3 10 8 10 11 0 2 -4 4 -10 4 -5 0 -10
-5 -10 -11z"/>
<path d="M8261 2484 c0 -11 3 -14 6 -6 3 7 2 16 -1 19 -3 4 -6 -2 -5 -13z"/>
<path d="M1845 2470 c10 -11 20 -20 23 -20 3 0 -3 9 -13 20 -10 11 -20 20 -23
20 -3 0 3 -9 13 -20z"/>
<path d="M7860 2469 c-6 -11 -10 -27 -8 -35 2 -8 8 1 14 20 12 40 10 46 -6 15z"/>
<path d="M1942 2450 c0 -14 2 -19 5 -12 2 6 2 18 0 25 -3 6 -5 1 -5 -13z"/>
<path d="M8019 2443 c-13 -16 -12 -17 4 -4 16 13 21 21 13 21 -2 0 -10 -8 -17
-17z"/>
<path d="M8250 2450 c0 -5 5 -10 11 -10 5 0 7 5 4 10 -3 6 -8 10 -11 10 -2 0
-4 -4 -4 -10z"/>
<path d="M1144 2185 c0 -148 2 -211 3 -138 2 72 2 194 0 270 -1 76 -3 17 -3
-132z"/>
<path d="M1942 2192 c-1 -125 -5 -238 -8 -252 -4 -17 -2 -22 5 -15 13 13 28
495 15 495 -5 0 -10 -101 -12 -228z"/>
<path d="M8310 2250 c-3 -85 -4 -157 -2 -159 9 -17 12 26 10 160 l-3 154 -5
-155z"/>
<path d="M1426 2344 c-5 -14 -4 -15 9 -4 17 14 19 20 6 20 -5 0 -12 -7 -15
-16z"/>
<path d="M1578 2353 c6 -2 18 -2 25 0 6 3 1 5 -13 5 -14 0 -19 -2 -12 -5z"/>
<path d="M3793 2353 c9 -2 25 -2 35 0 9 3 1 5 -18 5 -19 0 -27 -2 -17 -5z"/>
<path d="M4043 2353 c9 -2 23 -2 30 0 6 3 -1 5 -18 5 -16 0 -22 -2 -12 -5z"/>
<path d="M4178 2353 c12 -2 32 -2 45 0 12 2 2 4 -23 4 -25 0 -35 -2 -22 -4z"/>
<path d="M4338 2353 c12 -2 32 -2 45 0 12 2 2 4 -23 4 -25 0 -35 -2 -22 -4z"/>
<path d="M4538 2353 c34 -2 90 -2 125 0 34 2 6 3 -63 3 -69 0 -97 -1 -62 -3z"/>
<path d="M1660 2343 c5 -2 10 -14 10 -26 0 -28 16 -54 27 -44 4 5 2 11 -4 15
-6 4 -13 18 -14 31 -2 14 -10 26 -17 27 -7 1 -8 0 -2 -3z"/>
<path d="M1354 2306 c-10 -8 -16 -18 -11 -22 4 -4 7 -2 7 4 0 7 7 12 15 12 8
0 15 5 15 10 0 13 -3 13 -26 -4z"/>
<path d="M8106 2258 c-3 -13 -1 -27 4 -32 7 -7 10 0 10 17 0 15 5 27 10 27 6
0 10 -11 10 -25 0 -36 17 -31 18 5 1 25 -3 30 -23 30 -15 0 -25 -7 -29 -22z"/>
<path d="M1460 2246 c0 -2 7 -7 16 -10 8 -3 12 -2 9 4 -6 10 -25 14 -25 6z"/>
<path d="M7843 2195 c0 -33 2 -45 4 -27 2 18 2 45 0 60 -2 15 -4 0 -4 -33z"/>
<path d="M1343 2150 c0 -41 2 -58 4 -37 2 20 2 54 0 75 -2 20 -4 3 -4 -38z"/>
<path d="M7845 2110 c3 -5 8 -10 11 -10 2 0 4 5 4 10 0 6 -5 10 -11 10 -5 0
-7 -4 -4 -10z"/>
<path d="M1173 2040 c0 -25 2 -35 4 -22 2 12 2 32 0 45 -2 12 -4 2 -4 -23z"/>
<path d="M1341 2053 c-3 -42 2 -43 208 -41 l196 2 -194 6 c-182 5 -194 6 -202
25 -4 11 -8 15 -8 8z"/>
<path d="M1172 1965 c0 -16 2 -22 5 -12 2 9 2 23 0 30 -3 6 -5 -1 -5 -18z"/>
<path d="M1220 1911 c0 -5 5 -13 10 -16 6 -3 10 -2 10 4 0 5 -4 13 -10 16 -5
3 -10 2 -10 -4z"/>
<path d="M2668 1913 c23 -2 59 -2 80 0 20 2 1 4 -43 4 -44 0 -61 -2 -37 -4z"/>
<path d="M2808 1913 c6 -2 18 -2 25 0 6 3 1 5 -13 5 -14 0 -19 -2 -12 -5z"/>
<path d="M3163 1913 c9 -2 25 -2 35 0 9 3 1 5 -18 5 -19 0 -27 -2 -17 -5z"/>
<path d="M6507 1913 c18 -2 50 -2 70 0 21 2 7 4 -32 4 -38 0 -55 -2 -38 -4z"/>
<path d="M6978 1913 c6 -2 18 -2 25 0 6 3 1 5 -13 5 -14 0 -19 -2 -12 -5z"/>
<path d="M7035 1910 c11 -5 27 -9 35 -9 9 0 8 4 -5 9 -11 5 -27 9 -35 9 -9 0
-8 -4 5 -9z"/>
<path d="M1912 1889 c-7 -11 -32 -29 -55 -40 -38 -17 -68 -19 -320 -19 -293 0
-307 2 -361 49 -18 15 -18 15 -5 -6 7 -12 30 -31 52 -43 38 -22 45 -22 320
-18 249 4 286 6 317 23 36 18 70 51 70 67 0 13 -4 10 -18 -13z"/>
<path d="M3221 1907 c2 -2 18 -11 34 -21 l30 -17 -24 20 c-13 12 -28 21 -34
21 -6 0 -8 -1 -6 -3z"/>
<path d="M6438 1903 c7 -3 16 -2 19 1 4 3 -2 6 -13 5 -11 0 -14 -3 -6 -6z"/>
<path d="M2522 1868 c-24 -18 -52 -53 -65 -78 -21 -43 -22 -56 -22 -320 0
-266 1 -276 23 -321 14 -29 39 -58 65 -75 l42 -29 281 -3 c242 -3 324 1 394
19 18 5 90 69 90 81 0 5 -12 -4 -27 -19 -55 -56 -69 -58 -419 -58 l-320 0 -37
25 c-21 14 -46 44 -58 70 -21 42 -22 61 -23 315 l-1 270 27 47 c15 25 47 60
70 77 23 17 37 31 32 31 -6 0 -29 -15 -52 -32z"/>
<path d="M6384 1884 c-18 -14 -18 -14 6 -3 31 14 36 19 24 19 -6 0 -19 -7 -30
-16z"/>
<path d="M7125 1876 c47 -28 80 -70 93 -117 8 -27 10 -29 11 -11 2 43 -48 110
-101 138 -44 23 -46 16 -3 -10z"/>
<path d="M2663 1873 c15 -2 39 -2 55 0 15 2 2 4 -28 4 -30 0 -43 -2 -27 -4z"/>
<path d="M2878 1873 c18 -2 45 -2 60 0 15 2 0 4 -33 4 -33 0 -45 -2 -27 -4z"/>
<path d="M3048 1873 c7 -3 16 -2 19 1 4 3 -2 6 -13 5 -11 0 -14 -3 -6 -6z"/>
<path d="M3090 1874 c35 -7 149 -9 137 -2 -6 4 -43 7 -82 7 -38 -1 -63 -3 -55
-5z"/>
<path d="M3290 1860 c0 -5 5 -10 11 -10 5 0 7 5 4 10 -3 6 -8 10 -11 10 -2 0
-4 -4 -4 -10z"/>
<path d="M6331 1844 c-38 -48 -43 -94 -39 -378 4 -296 7 -315 64 -368 48 -44
91 -49 442 -51 322 -2 328 -2 369 21 81 43 81 46 73 432 l-4 225 -6 -293 -5
-294 -36 -33 c-49 -45 -84 -48 -441 -43 -306 5 -340 10 -386 52 -55 49 -57 58
-57 376 l0 295 28 43 c30 47 29 56 -2 16z"/>
<path d="M3269 1836 c29 -31 35 -33 22 -7 -6 10 -18 22 -28 25 -13 5 -11 1 6
-18z"/>
<path d="M6723 1843 c26 -2 67 -2 90 0 23 2 2 3 -48 3 -49 0 -68 -1 -42 -3z"/>
<path d="M6960 1838 c0 -4 21 -8 46 -8 55 0 102 -21 129 -58 19 -25 20 -47 25
-317 l6 -290 2 280 c2 308 -1 325 -61 369 -28 20 -147 40 -147 24z"/>
<path d="M3148 1833 c7 -3 16 -2 19 1 4 3 -2 6 -13 5 -11 0 -14 -3 -6 -6z"/>
<path d="M6419 1819 l-24 -21 26 15 c15 9 57 18 95 20 l69 3 -71 2 c-61 2 -75
-1 -95 -19z"/>
<path d="M3238 1790 c14 -16 28 -27 31 -25 5 6 -39 55 -50 55 -4 0 5 -13 19
-30z"/>
<path d="M3348 1580 c2 -113 5 -209 7 -215 7 -20 2 361 -4 390 -4 17 -6 -62
-3 -175z"/>
<path d="M6958 1631 c-2 -28 0 -41 9 -41 8 0 10 12 6 38 -8 50 -10 50 -15 3z"/>
<path d="M3004 1642 c5 -9 -41 -12 -178 -12 -173 0 -186 -1 -196 -19 -5 -11
-10 -87 -10 -174 0 -134 2 -156 18 -170 14 -13 52 -16 250 -17 150 0 232 3
232 10 0 6 -87 11 -242 12 l-243 3 -3 162 c-2 155 -2 162 18 173 14 7 81 10
196 8 130 -2 174 0 174 9 0 6 -5 15 -12 19 -7 4 -8 3 -4 -4z"/>
<path d="M6670 1600 c0 -5 7 -10 15 -10 8 0 15 5 15 10 0 6 -7 10 -15 10 -8 0
-15 -4 -15 -10z"/>
<path d="M6525 1579 c-11 -17 1 -21 15 -4 8 9 8 15 2 15 -6 0 -14 -5 -17 -11z"/>
<path d="M7018 1582 c7 -5 17 -24 22 -43 11 -37 14 -228 4 -253 -5 -14 -38
-16 -259 -16 -246 0 -254 1 -258 20 -4 17 -4 16 -3 -2 l1 -23 265 0 265 0 3
139 c2 112 0 143 -13 162 -8 13 -21 24 -28 24 -9 0 -9 -2 1 -8z"/>
<path d="M3163 1510 c0 -25 2 -35 4 -22 2 12 2 32 0 45 -2 12 -4 2 -4 -23z"/>
<path d="M6513 1430 c0 -30 2 -43 4 -27 2 15 2 39 0 55 -2 15 -4 2 -4 -28z"/>
<path d="M3162 1362 c-2 -63 -6 -84 -17 -88 -19 -8 -19 -24 0 -24 20 0 27 33
22 120 l-3 75 -2 -83z"/>
<path d="M3343 1205 c0 -22 2 -30 4 -17 2 12 2 30 0 40 -3 9 -5 -1 -4 -23z"/>
<path d="M2480 1182 c0 -13 41 -64 47 -58 3 3 -6 19 -21 36 -14 17 -26 27 -26
22z"/>
<path d="M6370 1145 c13 -14 26 -25 28 -25 3 0 -5 11 -18 25 -13 14 -26 25
-28 25 -3 0 5 -11 18 -25z"/>
<path d="M7127 1130 c-15 -16 -23 -30 -19 -30 9 0 33 25 46 48 12 21 1 13 -27
-18z"/>
<path d="M7162 1125 c-7 -8 -9 -15 -4 -15 5 0 15 7 22 15 16 19 -1 19 -18 0z"/>
<path d="M2552 1104 c10 -10 37 -18 70 -20 l53 -3 -49 9 c-27 5 -54 14 -59 19
-6 6 -16 11 -21 11 -6 0 -3 -7 6 -16z"/>
<path d="M2843 1083 c26 -2 67 -2 90 0 23 2 2 3 -48 3 -49 0 -68 -1 -42 -3z"/>
<path d="M3063 1083 c15 -2 37 -2 50 0 12 2 0 4 -28 4 -27 0 -38 -2 -22 -4z"/>
</g>
</svg>
